<svg xmlns="http://www.w3.org/2000/svg" viewBox="0 0 512 512">
  <defs>
    <clipPath id="flask">
      <path d="M216 108 L216 232 L108 414 Q100 430 118 430 L394 430 Q412 430 404 414 L296 232 L296 108 Z"/>
    </clipPath>
  </defs>
  <rect width="512" height="512" rx="112" fill="#1a4a3a"/>
  <path d="M216 108 L216 232 L108 414 Q100 430 118 430 L394 430 Q412 430 404 414 L296 232 L296 108 Z" fill="#ffffff"/>
  <rect x="0" y="330" width="512" height="200" fill="#4ade80" clip-path="url(#flask)"/>
  <circle cx="196" cy="378" r="12" fill="#ffffff" opacity="0.9" clip-path="url(#flask)"/>
  <circle cx="310" cy="400" r="8" fill="#ffffff" opacity="0.75" clip-path="url(#flask)"/>
  <circle cx="258" cy="360" r="6" fill="#ffffff" opacity="0.8" clip-path="url(#flask)"/>
  <rect x="196" y="78" width="120" height="34" rx="10" fill="#ffffff"/>
</svg>
